<svg width="181" height="82" viewBox="0 0 181 82" fill="none" xmlns="http://www.w3.org/2000/svg">
<g clip-path="url(#clip0_17_297)" filter="url(#filter0_d_17_297)">
<path d="M16.532 65.9356C17.6027 64.784 18.8613 63.4834 19.6128 62.8719C19.4015 62.8537 19.068 62.8127 18.7059 62.7581C17.9226 63.4717 16.9234 64.5142 16.0282 65.4703C14.8938 66.6941 13.9589 67.7632 13.9589 67.7684C13.9446 67.7775 13.9394 67.7964 13.9245 67.8094C13.1834 68.0135 11.9254 68.3592 11.0888 68.5874C9.84839 68.9312 8.73543 68.8467 8.73543 69.6578C8.73543 69.6578 7.45149 70.3461 7.75184 71.3723C7.75184 71.3723 10.3275 69.3153 12.5313 68.9669C12.5313 68.9669 11.185 69.8424 11.3072 71.0292C11.3072 71.0292 13.1216 68.315 15.2403 69.9607C15.2403 69.9607 14.2963 68.6784 14.6896 67.9725C15.0283 67.5884 15.7298 66.7994 16.532 65.9356ZM12.452 33.8881C12.3409 33.9375 12.2251 33.9557 12.1062 33.9557C11.7304 33.9557 11.3781 33.7282 11.2253 33.3558C11.2116 33.3253 11.1941 33.2889 11.1876 33.2505L10.908 33.3435C11.1434 34.0285 11.8507 34.4035 12.4891 34.1825C12.6496 34.1247 12.7933 34.0396 12.9045 33.9304C13.2555 33.6002 13.3979 33.0634 13.223 32.5532L12.582 32.7722C12.6223 32.8664 12.6496 32.9685 12.6496 33.0777C12.6496 33.1725 12.6334 33.2583 12.5957 33.3402L12.8882 33.5183C12.8375 33.595 12.7751 33.6717 12.7004 33.7354C12.6334 33.7991 12.5476 33.8498 12.452 33.8881ZM38.4083 31.8096L25.7399 34.8988V34.8851L25.7438 34.8988L50.4884 24.1944L30.0956 26.6914L41.0113 18.72L29.3142 23.2858L31.0805 19.7417L22.7131 25.7672L22.6422 25.6398L34.5052 0L15.2143 22.8269L15.094 10.3814L8.01577 27.0164L7.64782 22.1126L4.16072 34.8734L4.16722 34.8695V34.8734C4.16722 34.8734 4.63723 34.5257 5.26913 34.3353C5.31983 34.3216 5.37119 34.3086 5.4219 34.2943C5.4284 34.2943 5.4349 34.2891 5.44205 34.2891C5.49341 34.2781 5.54412 34.2657 5.59482 34.2579C5.60133 34.2579 5.60913 34.2521 5.61888 34.2521C5.67088 34.243 5.72094 34.2358 5.77945 34.2326V34.2267C5.83406 34.2222 5.88737 34.2196 5.93872 34.215H5.97188C6.02324 34.2105 6.07849 34.2105 6.13635 34.215C6.1396 34.215 6.14285 34.215 6.15521 34.2196C6.20331 34.2196 6.25077 34.2222 6.30213 34.2326C6.31188 34.2358 6.31838 34.2358 6.32943 34.2358C6.38469 34.243 6.43475 34.2521 6.4861 34.2657C6.49976 34.2657 6.51341 34.2703 6.51991 34.2735C6.57322 34.2872 6.62782 34.3015 6.68633 34.3216C7.87926 34.7532 8.89405 34.3216 8.89405 34.3216C8.89405 34.3216 10.0174 35.0424 10.0174 35.6475H10.0148V35.6501C10.0148 35.6501 8.5365 35.7365 8.5365 35.082C8.5365 35.082 6.64603 34.4107 4.00079 35.3908L9.57925 37.789C9.576 37.763 9.28151 36.7251 9.60396 36.3637C9.70602 36.2389 9.88545 36.1954 10.165 36.2903C10.2671 36.3267 10.3412 36.3176 10.3873 36.2727C10.8209 35.8256 8.71723 31.9416 8.71723 31.9416C8.71723 31.9416 6.82805 31.7583 5.19372 33.4676C5.08515 33.5807 4.97203 33.7022 4.86737 33.8355V33.8296V33.8355C5.03444 33.5443 5.56427 32.7 6.4484 31.9689C6.97822 31.5243 7.64132 31.1259 8.43119 30.901C8.64767 30.3817 8.37268 30.7197 8.81929 30.4467C8.82254 30.4467 8.82254 30.4422 8.82254 30.4422C9.03252 29.0728 9.80808 25.5456 12.4832 22.5286C12.6626 22.3284 12.8473 22.1263 13.0436 21.9346C13.0436 21.9346 12.3584 23.2234 12.3584 24.1196C12.3779 24.0969 13.0547 23.0817 13.9901 22.1529V22.149C13.9901 22.149 13.9791 22.164 13.9654 22.1893C13.7919 22.5611 12.5164 25.283 12.6496 26.0779C12.6535 26.085 12.6561 26.0896 12.6561 26.0974L15.2344 23.7355C15.2344 23.7355 15.2273 23.7401 15.2234 23.7427C15.1486 23.8447 12.8024 27.0164 12.571 28.1037V28.1109L16.4748 25.3233L16.4709 25.3279C16.4579 25.3506 15.9794 26.0181 15.7779 26.384C15.6349 26.6459 15.6141 26.7343 15.6141 26.7616L15.6206 26.7824L17.7223 25.8816C17.7223 25.8816 17.6313 25.9908 17.4844 26.15L16.7023 26.9449L16.5093 27.149L15.0875 28.5853L15.0608 28.6185L13.9791 29.7175L13.2854 30.424C13.2854 30.424 12.7179 31.0148 12.6496 31.3209C12.582 31.6218 12.9019 31.8077 12.9019 31.8077H12.898C13.1873 31.9689 13.4207 32.2184 13.5578 32.5168C13.6332 32.6974 13.6761 32.8937 13.6761 33.105C13.6761 33.5183 13.5065 33.8933 13.223 34.1643C12.9454 34.4373 12.5541 34.6076 12.1231 34.6076C11.7304 34.6076 11.382 34.4653 11.1096 34.2378C11.157 34.3015 11.9254 35.2673 13.3361 34.5166L15.0797 33.246L15.1551 33.1868L16.9572 31.8694C17.3823 32.3712 17.7841 32.9756 18.1475 33.6613C17.0768 34.6784 15.2507 36.443 13.4272 38.3727C12.3409 39.5198 11.2565 40.7326 10.3308 41.8777L10.9809 38.8237L11.0348 38.5715C11.0348 38.5715 11.0322 38.5715 11.0322 38.5761C11.0251 38.5793 11.0212 38.5793 11.016 38.5839C11.016 38.5865 11.0075 38.591 11.0075 38.591C11.001 38.5943 10.9939 38.5943 10.99 38.6047C10.9867 38.6047 10.9809 38.6073 10.9809 38.6144C10.9737 38.6183 10.9627 38.6229 10.9568 38.6274C10.9529 38.63 10.9503 38.6398 10.9392 38.6417C10.9327 38.6456 10.923 38.6554 10.9139 38.658C10.908 38.6671 10.9022 38.671 10.8918 38.6781C10.8846 38.6853 10.8794 38.6931 10.8645 38.6963C10.8547 38.7067 10.8482 38.7165 10.8372 38.7217C10.8281 38.7295 10.817 38.7418 10.806 38.7438C10.7975 38.7574 10.7865 38.7691 10.7774 38.773C10.7624 38.7828 10.7527 38.7951 10.739 38.8042C10.7286 38.8114 10.7189 38.8237 10.7098 38.8341C10.6955 38.8458 10.6779 38.8549 10.6682 38.8712C10.6506 38.8777 10.6441 38.8894 10.6272 38.8965C10.6168 38.9134 10.5999 38.9257 10.5823 38.9407C10.5732 38.9517 10.555 38.9641 10.5453 38.9771C10.5277 38.9914 10.5076 39.0076 10.4939 39.0258C10.4803 39.0382 10.4712 39.0499 10.453 39.059C10.44 39.0791 10.4205 39.0986 10.3958 39.1168C10.3821 39.1279 10.3717 39.137 10.362 39.15C10.3509 39.161 10.3379 39.1727 10.3236 39.1838C10.3236 39.1883 10.321 39.1883 10.321 39.1883C10.3015 39.2065 10.2801 39.2299 10.2599 39.252C10.2423 39.2631 10.2287 39.2813 10.2163 39.2975C10.1916 39.3157 10.1741 39.3365 10.1539 39.356C10.137 39.3723 10.1195 39.3924 10.1032 39.4067C10.0896 39.4275 10.072 39.4431 10.0629 39.4561C10.0558 39.4613 10.0467 39.471 10.0389 39.4788C10.0389 39.4814 10.0324 39.4866 10.0246 39.4938C10.0122 39.5068 10.0012 39.5178 9.98751 39.5321C9.97061 39.5523 9.95371 39.5685 9.9368 39.5887C9.9329 39.5958 9.9303 39.6017 9.92315 39.603C9.916 39.6108 9.91015 39.614 9.903 39.6218C9.8939 39.6381 9.8822 39.6498 9.86854 39.6615C9.84839 39.6907 9.82824 39.7128 9.80093 39.7362C9.78338 39.7616 9.76258 39.7798 9.74633 39.8058C9.72617 39.8311 9.69887 39.8584 9.67807 39.8818C9.65791 39.9071 9.63906 39.9273 9.61956 39.9526C9.59355 39.9812 9.5734 40.0111 9.5461 40.0397C9.52854 40.0625 9.50774 40.0859 9.48564 40.1132C9.46419 40.1444 9.44013 40.1717 9.41283 40.2081C9.39267 40.2263 9.37577 40.2542 9.35432 40.277C9.32897 40.3153 9.30101 40.3478 9.27371 40.3848C9.2529 40.4121 9.236 40.4303 9.22235 40.4544C9.1892 40.4986 9.15409 40.5421 9.12029 40.5857C9.10988 40.6032 9.09233 40.6234 9.08323 40.6396C9.03577 40.7053 8.98507 40.7716 8.93956 40.8405L8.93371 40.8482C8.8882 40.9145 8.84074 40.9802 8.79719 41.0471C8.78614 41.0666 8.77183 41.0894 8.75753 41.1102C8.72633 41.1609 8.68992 41.2122 8.65547 41.2662C8.63727 41.2915 8.62426 41.3168 8.60411 41.3422C8.57356 41.3935 8.54235 41.439 8.50855 41.4897C8.49099 41.5209 8.47474 41.5482 8.45849 41.5762C8.43119 41.6275 8.39673 41.6795 8.36358 41.7302C8.34927 41.7614 8.32912 41.7913 8.31287 41.8238C8.28166 41.8751 8.25436 41.9284 8.2199 41.9798C8.20235 42.0071 8.18285 42.0435 8.1653 42.0747C8.13409 42.1345 8.10354 42.1858 8.07233 42.2404C8.05803 42.271 8.03918 42.3054 8.02293 42.3405C7.87926 42.6044 7.74013 42.8773 7.59711 43.1724V43.1776L6.87941 43.2978C7.02308 42.9287 7.16545 42.5933 7.31887 42.2755L6.1487 43.9224L7.31887 43.808C6.31838 46.1068 5.58442 49.1154 5.58442 53.3997L6.53681 52.7973C7.37673 57.5795 11.3202 59.6813 11.3202 59.6813L11.3137 59.6514C13.4857 61.0728 16.1303 62.0672 19.0446 62.4611C19.449 62.5124 19.7766 62.5423 19.8507 62.5495C19.8533 62.5495 19.8533 62.5495 19.8533 62.5475C19.906 62.554 19.9528 62.5631 20.0035 62.5631C21.5819 62.7009 23.1149 62.6444 24.5808 62.4299C24.5769 62.4858 24.5737 62.5423 24.5737 62.5989C24.5737 63.5458 25.1003 64.3251 25.7712 64.3895C24.3936 66.7325 23.2774 69.8443 23.2741 69.8586C23.2208 70.0016 23.111 70.2668 22.9998 70.3461C22.6604 70.4228 22.6331 70.4397 22.2574 70.5567L22.2632 70.5521C22.1365 70.4286 21.0482 70.2252 19.9398 70.6411C19.9424 70.6463 19.9424 70.6463 19.9489 70.6522C19.3216 70.9271 18.7111 71.4295 18.2879 72.2621C18.7384 71.8981 19.579 71.3067 20.2636 71.3886C19.4529 71.85 18.0526 72.7313 17.8927 74C17.8927 74 22.7541 70.5898 25.151 71.2189C25.151 71.2189 24.8019 71.6154 25.6275 73.0881L26.0045 71.7181C26.4362 70.389 24.7713 70.1933 24.0712 70.1647C24.0744 70.155 24.0744 70.1505 24.0744 70.1485C24.0744 70.1485 24.1518 69.9353 24.2876 69.5831C24.7004 68.5185 25.6613 66.1651 26.7131 64.485C26.732 64.4499 26.7456 64.4122 26.7567 64.3778L26.5597 64.1067C26.5617 64.1067 26.7021 63.9533 26.7775 63.8403C26.9166 63.6199 27.1103 63.2462 27.1136 62.7516C27.1136 62.3636 27.0187 61.8742 26.7424 61.2659L27.3652 60.9773C27.399 61.0566 27.4321 61.13 27.4653 61.2009C27.4744 61.2282 27.4835 61.2522 27.4913 61.273C27.5108 61.3237 27.531 61.3751 27.5479 61.4258C27.5583 61.4485 27.5674 61.4771 27.5765 61.5024C27.5934 61.5577 27.609 61.609 27.6272 61.6597C27.6311 61.6753 27.6408 61.6961 27.6447 61.7143L31.2027 60.64L30.4141 59.9907H30.4089L30.3738 59.9556L30.3556 59.942L16.8987 47.6894C16.9026 47.6894 16.9065 47.6959 16.9065 47.6959L16.9026 47.6894C20.6439 49.5086 25.0079 51.6235 32.4106 55.0525C39.7033 58.4133 44.3209 60.3709 46.7029 61.3465C46.723 61.3595 46.7451 61.3679 46.7614 61.3751H46.7653C47.1111 61.5174 47.4082 61.6363 47.6585 61.7384C48.1682 61.9379 48.646 62.1225 48.672 62.1342C48.7123 62.1114 48.7604 62.0991 48.8014 62.0776L21.5949 43.4226L38.4083 31.8096ZM19.579 37.5596L15.5231 40.6442L18.4342 34.243V34.2378C18.8971 35.2192 19.2858 36.341 19.5829 37.5596H19.579ZM34.0618 59.6287L34.1632 60.1155H34.1606L38.9011 62.9109L40.1005 63.6076L39.4446 61.9204C43.3555 63.0733 46.5404 63.1377 48.6584 62.14C48.6584 62.14 48.6558 62.14 48.6558 62.1413C44.9691 63.2306 35.8275 60.1512 34.0618 59.6287Z" fill="#DC0D15"/>
<path d="M8.53636 35.0816C8.53636 35.7361 10.0147 35.6496 10.0147 35.6496C10.0147 35.0478 8.89326 34.3238 8.89326 34.3238C8.89326 34.3238 7.87911 34.7527 6.67969 34.3238C6.19927 34.1502 5.69675 34.2068 5.26898 34.3374C4.7008 34.7163 4 35.3948 4 35.3948C6.64588 34.4108 8.53636 35.0816 8.53636 35.0816ZM18.434 34.2432L15.5229 40.6437L19.5789 37.5591C19.2857 36.3405 18.8911 35.2239 18.434 34.2432ZM48.6784 62.1344C48.6784 62.1344 39.5667 58.7164 16.8985 47.689L30.4081 59.9909H30.414C31.6238 59.4885 32.4754 59.1317 34.1605 60.1157L34.061 59.6282C35.8234 60.1508 44.9995 63.2457 48.6784 62.1344ZM26.7416 61.2654C27.0185 61.8737 27.1135 62.3638 27.1135 62.7511C27.1096 63.2457 26.9165 63.6201 26.7773 63.8404C26.7019 63.9535 26.5615 64.1063 26.5596 64.1063L26.9639 64.6606C27.0075 64.6327 27.7973 64.0361 27.7973 62.7511C27.7973 62.2513 27.6777 61.6599 27.3624 60.9768L26.7416 61.2654ZM18.6089 62.7414C19.2519 62.8434 19.8376 62.8974 19.8376 62.8974L19.8675 62.5575C19.8675 62.5575 19.2941 62.5068 18.6648 62.4047L18.6089 62.7414ZM18.1474 33.6615C17.7839 32.9758 17.3822 32.3714 16.957 31.8696L13.336 34.5207C11.8739 35.2928 11.1029 34.236 11.1029 34.236C11.3708 34.4654 11.7277 34.6071 12.1229 34.6071C12.9824 34.6071 13.6728 33.9299 13.6754 33.1051C13.6754 32.8965 13.6331 32.697 13.5544 32.5215C13.4205 32.218 13.1832 31.9684 12.8952 31.8092L12.9017 31.8072C12.9017 31.8072 12.5819 31.622 12.6495 31.3204C12.7178 31.0143 13.2846 30.4235 13.2846 30.4235L13.2814 30.4261L15.0607 28.618L15.0874 28.5855L16.7022 26.9444L17.4843 26.1496C17.6312 25.9903 17.7183 25.8857 17.7183 25.8857L15.6139 26.7826C15.6139 26.7826 15.5736 26.7598 15.7778 26.3835C15.9812 26.0105 16.474 25.3228 16.474 25.3228L12.5676 28.111C12.7932 27.0166 15.2336 23.7396 15.2336 23.7396L12.6554 26.0989C12.4824 25.2767 13.99 22.1525 13.99 22.1525C13.0409 23.0929 12.3576 24.125 12.3576 24.125C12.3576 23.2236 13.0409 21.9341 13.0409 21.9341C9.91001 25.0655 9.04083 28.9839 8.8224 30.4417C8.36863 30.7251 8.64752 30.38 8.43104 30.9006C6.32864 31.4939 5.13571 33.369 4.86463 33.835C6.56982 31.7312 8.71643 31.9411 8.71643 31.9411C8.71643 31.9411 11.2798 36.6765 10.1648 36.2943C9.04083 35.905 9.57911 37.7885 9.57911 37.7885L7.4819 36.8845C7.82775 37.5689 8.5084 39.1807 8.1177 40.8575C7.68603 41.5133 7.25762 42.3127 6.87862 43.298L7.59632 43.1778C7.73674 42.8775 7.87586 42.6039 8.01563 42.342C8.03579 42.3082 8.05724 42.2757 8.07219 42.2425C8.10014 42.1873 8.13135 42.134 8.16515 42.0787C8.18206 42.0462 8.20221 42.0105 8.21976 41.9793C8.24967 41.9286 8.27567 41.8773 8.30882 41.8266C8.32898 41.7908 8.34913 41.7609 8.36343 41.7297C8.39594 41.679 8.42324 41.627 8.45835 41.5796C8.4746 41.5478 8.49085 41.5205 8.5084 41.4951C8.53896 41.4438 8.57276 41.3931 8.60397 41.3437C8.61827 41.3164 8.63322 41.291 8.65467 41.2657C8.68393 41.2143 8.72033 41.1636 8.75674 41.1129C8.77169 41.0889 8.78079 41.0662 8.79705 41.0473C8.8406 40.9797 8.88806 40.9141 8.93357 40.8504C8.93357 40.8478 8.93877 40.8432 8.93877 40.8406C8.98427 40.7711 9.03173 40.7087 9.07724 40.6437C9.09219 40.6281 9.10649 40.6066 9.12014 40.5884C9.15395 40.5417 9.18515 40.5007 9.21831 40.4546C9.23586 40.4299 9.25211 40.4117 9.27291 40.3889C9.29762 40.3525 9.32427 40.3148 9.35158 40.2771C9.37498 40.2544 9.39253 40.2316 9.40878 40.2076C9.43414 40.1751 9.46014 40.1439 9.48549 40.1127C9.50435 40.09 9.5284 40.0672 9.5453 40.0419C9.57261 40.0107 9.59276 39.984 9.61616 39.9554C9.63827 39.9327 9.65517 39.9093 9.67467 39.8865C9.69873 39.8579 9.72148 39.8306 9.74618 39.8072C9.76243 39.7845 9.78324 39.763 9.80079 39.7416C9.82354 39.7123 9.8476 39.6902 9.8645 39.6649C9.8853 39.6467 9.90221 39.6214 9.92236 39.6032C9.94446 39.5804 9.96331 39.5596 9.98737 39.5356C10.0043 39.5122 10.0212 39.4992 10.0381 39.4784C10.0628 39.4556 10.081 39.4355 10.1031 39.4101C10.1167 39.3971 10.1369 39.3763 10.1538 39.3555C10.17 39.336 10.1915 39.3152 10.2156 39.297C10.2286 39.2827 10.2422 39.2671 10.2598 39.2515C10.2793 39.2301 10.3014 39.206 10.3202 39.1878C10.3378 39.1768 10.3469 39.1606 10.3612 39.1515C10.395 39.117 10.4223 39.0884 10.4528 39.0585C10.471 39.0494 10.4801 39.0377 10.4938 39.026C10.5074 39.0078 10.5276 38.9916 10.5445 38.9766C10.5542 38.9636 10.5725 38.9513 10.5822 38.9402C10.5991 38.9259 10.6167 38.9129 10.6264 38.8967C10.644 38.8895 10.6505 38.8772 10.6674 38.8713C10.6778 38.8544 10.6947 38.8453 10.7096 38.8336C10.7187 38.8239 10.7285 38.8109 10.7389 38.8037C10.7525 38.7946 10.7623 38.7829 10.7766 38.7725C10.7857 38.7693 10.7967 38.7569 10.8058 38.7433C10.8169 38.742 10.8279 38.729 10.837 38.7218C10.8481 38.716 10.8539 38.7062 10.8643 38.6965C10.8786 38.6926 10.8845 38.6854 10.8916 38.6783C10.9014 38.6705 10.9079 38.6672 10.9138 38.6581C10.9222 38.6549 10.9326 38.6452 10.9391 38.6419C10.9495 38.64 10.9528 38.6296 10.956 38.627C10.9625 38.6224 10.9736 38.6179 10.9807 38.614C10.9807 38.6068 10.9866 38.6042 10.9898 38.6042C10.9937 38.5945 11.0009 38.5945 11.0074 38.5906C11.0074 38.5906 11.0152 38.586 11.0152 38.5834C11.021 38.5789 11.0243 38.5789 11.0321 38.5763C11.0321 38.5717 11.0347 38.5717 11.0347 38.5717L10.9807 38.8239L10.3306 41.8773C12.7958 38.8239 16.4357 35.2811 18.1474 33.6615ZM10.9053 33.3437L11.1874 33.2507C11.1939 33.2891 11.2115 33.3255 11.2251 33.3554C11.3779 33.7278 11.7303 33.9552 12.1054 33.9552C12.225 33.9552 12.3407 33.937 12.4519 33.8876C12.6391 33.8116 12.7886 33.6764 12.8881 33.5185L12.5955 33.3437C12.6326 33.2631 12.6495 33.1721 12.6495 33.0778C12.6495 32.9686 12.6222 32.8666 12.5819 32.7717L13.2229 32.5533C13.455 33.2351 13.1286 33.9643 12.4863 34.1847C11.8479 34.403 11.1393 34.0319 10.9053 33.3437Z" fill="black"/>
<path d="M70.2148 38.4712C69.7825 38.3555 69.1363 38.2918 68.2957 38.2918H66.4703V48.6056L66.664 48.4704L68.1651 47.4123L68.2184 47.3733V44.4551H68.7918C69.8508 44.4551 70.7102 44.1724 71.3414 43.6239C71.9779 43.0656 72.2984 42.3077 72.2984 41.3653C72.2984 40.4827 71.9974 39.7438 71.4051 39.1614C71.0645 38.8261 70.6666 38.5934 70.2148 38.4712ZM68.6949 42.9687H68.2138V39.8068H68.7534C70.1323 39.8068 70.8266 40.3177 70.8266 41.3367C70.8266 42.4247 70.1128 42.9687 68.6949 42.9687ZM79.924 44.2075C80.5273 44.0372 81.0272 43.7109 81.4101 43.2306C81.8326 42.7062 82.0426 42.0647 82.0426 41.3367C82.0426 40.4041 81.702 39.6365 81.0317 39.0646C80.4297 38.555 79.4429 38.2918 78.1024 38.2918H76.223V48.6056L76.4122 48.4704L77.9184 47.4123L77.9717 47.3733V44.4207H78.0543L80.8621 48.4418L80.9297 48.5432L81.0317 48.4704L82.2364 47.6008L82.3384 47.528L82.2656 47.4266L79.924 44.2075ZM77.9717 42.9687V42.866V39.9537V39.8068H78.5107C79.8902 39.8068 80.5851 40.3177 80.5851 41.3367C80.5851 42.4247 79.8713 42.9687 78.4522 42.9687H77.9717ZM53.7154 38.5979C53.1225 38.3945 52.3112 38.2918 51.3055 38.2918H49.0965V48.4892H51.2821C52.2963 48.4892 53.0926 48.3976 53.6569 48.2078C54.2544 48.0187 54.8407 47.6788 55.3901 47.1985C56.4783 46.2314 57.0368 44.9549 57.0368 43.3905C57.0368 41.8417 56.5024 40.5646 55.4538 39.6086C54.9337 39.1367 54.3512 38.7975 53.7154 38.5979ZM54.2056 45.9409C53.861 46.2502 53.4677 46.4842 53.0341 46.6246C52.6083 46.7656 52.0544 46.8339 51.3978 46.8339H50.8446V39.9537H51.3978C52.6369 39.9537 53.5887 40.2494 54.2147 40.8278C54.9194 41.483 55.2692 42.3415 55.2692 43.3905C55.2692 44.435 54.9149 45.289 54.2056 45.9409ZM42.7282 39.7633C43.3731 39.7633 44.0102 39.9478 44.6317 40.3125L44.7396 40.3748L44.7974 40.2683L45.5262 39.0113L45.5892 38.9047L45.4826 38.841C44.6317 38.351 43.7378 38.1033 42.8341 38.1033C41.1641 38.1033 39.7852 38.7286 38.736 39.9673C37.8811 40.9825 37.4481 42.1479 37.4481 43.4399C37.4481 44.8763 37.9682 46.13 38.9836 47.1491C40.0127 48.1597 41.2661 48.6738 42.7184 48.6738C43.6793 48.6738 44.6083 48.421 45.4826 47.9264L45.5444 47.8874V47.7854L45.5307 47.7574L44.7974 46.4888L44.7337 46.3783L44.6226 46.4511C44.4191 46.5817 44.2182 46.6883 44.0342 46.7656C43.6793 46.9314 43.2431 47.0133 42.7321 47.0133C41.7524 47.0133 40.9118 46.6636 40.2312 45.9734C39.5557 45.2851 39.2112 44.4252 39.2112 43.4198C39.2112 42.4007 39.5557 41.5259 40.2312 40.8278C40.9073 40.1175 41.7465 39.7633 42.7282 39.7633ZM157.678 39.9537L157.712 39.9186L159.096 38.5056L159.306 38.2918H153.394V48.4892H157.712L157.747 48.4555L159.102 47.0425L159.3 46.8339H155.142V43.6674H156.424L156.459 43.6291L157.863 42.2213L158.071 42.0075H155.142V39.9537H157.678ZM127.763 39.9537H130.05V48.6056L130.245 48.4704L131.746 47.4123L131.8 47.3733V39.9537H134.083V38.2918H127.763V39.9537ZM90.7851 38.1072C89.3224 38.1072 88.0501 38.6278 87.0113 39.6521C85.962 40.6764 85.4322 41.9204 85.4322 43.347C85.4322 44.9686 86.0147 46.3042 87.1621 47.3096C88.201 48.2137 89.3952 48.6738 90.7071 48.6738C92.1841 48.6738 93.4667 48.1545 94.5101 47.1354C95.5548 46.1202 96.084 44.8672 96.084 43.4061C96.084 41.9581 95.5594 40.6953 94.5199 39.6658C93.4862 38.6317 92.2322 38.1072 90.7851 38.1072ZM93.2815 45.9701C92.5865 46.6636 91.7271 47.0133 90.7214 47.0133C89.8035 47.0133 88.9726 46.6681 88.2692 45.9838C87.5548 45.3046 87.1953 44.4252 87.1953 43.3626C87.1953 42.3571 87.545 41.4966 88.2296 40.8122C88.9148 40.1175 89.7696 39.7633 90.7656 39.7633C91.7661 39.7633 92.6158 40.1175 93.2919 40.8122C93.9764 41.5025 94.321 42.3708 94.321 43.3905C94.321 44.396 93.9712 45.2656 93.2815 45.9701ZM169.739 39.6086C169.219 39.1367 168.632 38.7975 167.995 38.5979C167.402 38.3945 166.596 38.2918 165.586 38.2918H163.376V48.4892H165.561C166.577 48.4892 167.379 48.3976 167.942 48.2078C168.539 48.0187 169.121 47.6788 169.671 47.1985C170.764 46.2314 171.317 44.9549 171.317 43.3905C171.317 41.8417 170.788 40.5646 169.739 39.6086ZM168.49 45.9409C168.14 46.2502 167.746 46.4842 167.32 46.6246C166.888 46.7656 166.338 46.8339 165.678 46.8339H165.125V39.9537H165.678C166.922 39.9537 167.869 40.2494 168.501 40.8278C169.2 41.483 169.553 42.3415 169.553 43.3905C169.553 44.435 169.2 45.289 168.49 45.9409ZM146.672 44.2075C147.274 44.0372 147.774 43.7109 148.159 43.2306C148.581 42.7062 148.79 42.0647 148.79 41.3367C148.79 40.4041 148.45 39.6365 147.78 39.0646C147.172 38.555 146.191 38.2918 144.85 38.2918H142.966V48.6056L143.161 48.4704L144.666 47.4123L144.72 47.3733V44.4207H144.801L147.604 48.4418L147.678 48.5432L147.78 48.4704L148.983 47.6008L149.08 47.528L149.013 47.4266L146.672 44.2075ZM144.72 42.9687V39.8068H145.253C146.638 39.8068 147.328 40.3177 147.328 41.3367C147.328 42.4247 146.618 42.9687 145.195 42.9687H144.72ZM122.983 38.3308L119.322 42.0842V38.18L119.127 38.3211L117.626 39.3752L117.572 39.4136V48.6056L117.772 48.4704L119.272 47.4123L119.322 47.3733V44.2991L119.5 44.1237L122.997 48.4457L123.066 48.5328L123.163 48.4704L124.45 47.6008L124.562 47.5234L124.474 47.4156L120.75 42.9291L125.169 38.5056L125.378 38.2918H123.023L122.983 38.3308ZM101.471 39.3798L101.417 39.4188V44.8522C101.417 45.6744 101.33 46.2502 101.16 46.5706C101.009 46.8722 100.742 47.0133 100.344 47.0133C100.053 47.0133 99.7369 46.9021 99.3969 46.674L99.2851 46.6012L99.222 46.7117L98.479 47.994L98.4205 48.1006L98.5225 48.1643C99.0855 48.4996 99.6972 48.6738 100.344 48.6738C101.209 48.6738 101.912 48.358 102.437 47.747C102.705 47.437 102.894 47.0522 103.011 46.6057C103.117 46.2177 103.175 45.6438 103.175 44.8574V38.18L102.976 38.3211L101.471 39.3798ZM112.22 39.9537L112.258 39.9186L113.642 38.5056L113.847 38.2918H107.941V48.4892H112.254L112.293 48.4555L113.642 47.0425L113.843 46.8339H109.69V43.6674H110.967L111 43.6291L112.404 42.2213L112.613 42.0075H109.69V39.9537H112.22Z" fill="black"/>
<path d="M174.267 41.6694C173.283 41.6694 172.484 40.8694 172.484 39.8867C172.484 38.8942 173.283 38.1039 174.267 38.1039C175.259 38.1039 176.05 38.8942 176.05 39.8867C176.05 40.8694 175.259 41.6694 174.267 41.6694ZM174.267 38.3717C173.426 38.3717 172.752 39.0372 172.752 39.8867C172.752 40.7186 173.426 41.3997 174.267 41.3997C175.108 41.3997 175.78 40.7186 175.78 39.8867C175.78 39.0372 175.108 38.3717 174.267 38.3717ZM174.755 40.9116L174.225 40.105H173.872V40.9116H173.585V38.8689H174.418C174.763 38.8689 175.083 39.1119 175.083 39.4915C175.083 39.9452 174.678 40.0959 174.562 40.0959L175.108 40.9116H174.755ZM174.418 39.1217H173.872V39.8438H174.418C174.594 39.8438 174.788 39.7021 174.788 39.4915C174.788 39.264 174.594 39.1217 174.418 39.1217Z" fill="black"/>
</g>
<defs>
<filter id="filter0_d_17_297" x="0" y="0" width="180.05" height="82" filterUnits="userSpaceOnUse" color-interpolation-filters="sRGB">
<feFlood flood-opacity="0" result="BackgroundImageFix"/>
<feColorMatrix in="SourceAlpha" type="matrix" values="0 0 0 0 0 0 0 0 0 0 0 0 0 0 0 0 0 0 127 0" result="hardAlpha"/>
<feOffset dy="4"/>
<feGaussianBlur stdDeviation="2"/>
<feComposite in2="hardAlpha" operator="out"/>
<feColorMatrix type="matrix" values="0 0 0 0 0 0 0 0 0 0 0 0 0 0 0 0 0 0 0.25 0"/>
<feBlend mode="normal" in2="BackgroundImageFix" result="effect1_dropShadow_17_297"/>
<feBlend mode="normal" in="SourceGraphic" in2="effect1_dropShadow_17_297" result="shape"/>
</filter>
<clipPath id="clip0_17_297">
<rect width="172.05" height="74" fill="white" transform="translate(4)"/>
</clipPath>
</defs>
</svg>
